<mxfile host="app.diagrams.net" modified="2023-10-07T12:41:34.926Z" agent="Mozilla/5.0 (Macintosh; Intel Mac OS X 10_15_7) AppleWebKit/605.1.15 (KHTML, like Gecko) Version/16.6 Safari/605.1.15" version="22.0.0" etag="19F7y_l5nqsihHqGd7y0" type="github">
  <diagram name="Strona-1" id="p--U2kg5PHq-WCcCk9ot">
    <mxGraphModel>
      <root>
        <mxCell id="0" />
        <mxCell id="1" parent="0" />
      </root>
    </mxGraphModel>
  </diagram>
</mxfile>
